<svg width="28" height="28" viewBox="0 0 28 28" fill="none" xmlns="http://www.w3.org/2000/svg">
<g id="IMAGE">
<path id="Vector" fill-rule="evenodd" clip-rule="evenodd" d="M26.1822 7.93164H6.17021C5.7086 7.93164 5.26589 8.11501 4.93948 8.44142C4.61307 8.76783 4.42969 9.21054 4.42969 9.67216V22.722H24.4256C24.8872 22.722 25.3299 22.5386 25.6563 22.2122C25.9827 21.8858 26.1661 21.4431 26.1661 20.9815V7.93164H26.1822Z" fill="#90C3FF"/>
<path id="Vector_2" d="M26.133 5.36387C25.9081 5.14086 25.6415 4.96442 25.3483 4.84467C25.0551 4.72493 24.7412 4.66423 24.4245 4.66606H3.57031C2.93214 4.66606 2.3201 4.91957 1.86884 5.37083C1.41758 5.82209 1.16406 6.43413 1.16406 7.07231V20.9805C1.16406 21.6186 1.41758 22.2307 1.86884 22.6819C2.3201 23.1332 2.93214 23.3867 3.57031 23.3867H24.4245C25.0586 23.3862 25.6668 23.1354 26.1169 22.6889C26.3428 22.4654 26.5222 22.1993 26.6448 21.9061C26.7673 21.6129 26.8305 21.2983 26.8308 20.9805V7.05627C26.8302 6.42223 26.5795 5.81404 26.133 5.36387ZM25.5314 20.9724C25.5251 21.2604 25.4052 21.5341 25.1978 21.7339C24.9904 21.9338 24.7125 22.0435 24.4245 22.0392H3.57031C3.42706 22.0392 3.28522 22.011 3.15287 21.9562C3.02052 21.9014 2.90027 21.821 2.79898 21.7197C2.59441 21.5151 2.47948 21.2377 2.47948 20.9484V10.3208H20.1254C20.2987 10.3208 20.465 10.2519 20.5876 10.1293C20.7102 10.0067 20.7791 9.84042 20.7791 9.66705C20.7791 9.49368 20.7102 9.32741 20.5876 9.20481C20.465 9.08222 20.2987 9.01335 20.1254 9.01335H2.47948V7.05627C2.48783 6.77256 2.60643 6.50327 2.8101 6.30559C3.01378 6.10791 3.28648 5.99739 3.57031 5.99752H24.4245C24.7138 5.99752 24.9913 6.11244 25.1959 6.31701C25.4004 6.52158 25.5154 6.79904 25.5154 7.08835L25.5314 20.9724Z" fill="#282A2C"/>
<path id="Vector_3" d="M23.5669 10.3211H22.7006C22.5272 10.3211 22.361 10.2522 22.2384 10.1296C22.1158 10.007 22.0469 9.84074 22.0469 9.66737C22.0469 9.494 22.1158 9.32773 22.2384 9.20513C22.361 9.08254 22.5272 9.01367 22.7006 9.01367H23.5669C23.7402 9.01367 23.9065 9.08254 24.0291 9.20513C24.1517 9.32773 24.2206 9.494 24.2206 9.66737C24.2206 9.84074 24.1517 10.007 24.0291 10.1296C23.9065 10.2522 23.7402 10.3211 23.5669 10.3211Z" fill="#282A2C"/>
<path id="Vector_4" d="M7.03875 17.284H5.29823C5.12486 17.284 4.95859 17.2151 4.836 17.0925C4.7134 16.9699 4.64453 16.8036 4.64453 16.6303C4.64453 16.4569 4.7134 16.2906 4.836 16.168C4.95859 16.0454 5.12486 15.9766 5.29823 15.9766H7.03875C7.21212 15.9766 7.37839 16.0454 7.50099 16.168C7.62358 16.2906 7.69245 16.4569 7.69245 16.6303C7.69245 16.8036 7.62358 16.9699 7.50099 17.0925C7.37839 17.2151 7.21212 17.284 7.03875 17.284Z" fill="#282A2C"/>
<path id="Vector_5" d="M9.65354 19.8894H5.29823C5.12486 19.8894 4.95859 19.8205 4.83599 19.6979C4.7134 19.5753 4.64453 19.4091 4.64453 19.2357C4.64453 19.0623 4.7134 18.8961 4.83599 18.7735C4.95859 18.6509 5.12486 18.582 5.29823 18.582H9.64552C9.81889 18.582 9.98516 18.6509 10.1078 18.7735C10.2303 18.8961 10.2992 19.0623 10.2992 19.2357C10.2992 19.4091 10.2303 19.5753 10.1078 19.6979C9.98516 19.8205 9.81889 19.8894 9.64552 19.8894H9.65354Z" fill="#282A2C"/>
</g>
</svg>
