<svg width="104" height="104" viewBox="0 0 104 104" fill="none" xmlns="http://www.w3.org/2000/svg">
<circle cx="52" cy="52" r="52" fill="white"/>
<path d="M30.875 62.9583C30.875 65.4896 32.927 67.5417 35.4583 67.5417C37.9896 67.5417 40.0417 65.4896 40.0417 62.9583C40.0417 60.427 37.9896 58.375 35.4583 58.375C32.927 58.375 30.875 60.427 30.875 62.9583ZM30.875 62.9583V51.5H51.5M40.0417 65.25H58.375M67.5417 65.25H72.125V51.5M72.125 51.5C72.125 48.4611 70.9178 45.5466 68.7689 43.3977C66.6201 41.2489 63.7056 40.0417 60.6667 40.0417H58.375M72.125 51.5H61.8125L58.375 40.0417M58.375 40.0417H51.5V65.25M30.875 44.625L72.125 30.875M37.75 51.5V42.3333M67.5417 62.9583C67.5417 65.4896 65.4896 67.5417 62.9583 67.5417C60.427 67.5417 58.375 65.4896 58.375 62.9583C58.375 60.427 60.427 58.375 62.9583 58.375C65.4896 58.375 67.5417 60.427 67.5417 62.9583Z" stroke="#F8501A" stroke-width="3" stroke-linecap="round" stroke-linejoin="round"/>
</svg>
