<svg width="40" height="40" viewBox="0 0 40 40" fill="none" xmlns="http://www.w3.org/2000/svg">
<rect width="40" height="40" rx="10" fill="#223B7D"/>
<g clip-path="url(#clip0_405_15125)">
<path d="M22.5 18H24.9998C25.0473 18 25.0942 18.0101 25.1374 18.0297C25.1806 18.0493 25.2191 18.0779 25.2504 18.1136C25.2817 18.1493 25.305 18.1913 25.3187 18.2367C25.3316 18.2793 25.3358 18.324 25.3312 18.3682L25.32 18.4311L24.4909 21.7473C24.4744 21.8131 24.4381 21.8723 24.387 21.917C24.3383 21.9595 24.2784 21.987 24.2146 21.996L24.1512 22H22.5H22V22.5L22 27.4999C22 27.4999 22 27.4999 22 27.5C22 27.5816 21.97 27.6604 21.9158 27.7213C21.864 27.7796 21.7935 27.8177 21.7167 27.8294L21.6517 27.8333H18.3334C18.3334 27.8333 18.3334 27.8333 18.3333 27.8333C18.2517 27.8333 18.1729 27.8033 18.1119 27.7491C18.0537 27.6973 18.0156 27.6268 18.0039 27.55L18 27.485V22.5V22H17.5H15.8334C15.8334 22 15.8334 22 15.8333 22C15.7517 21.9999 15.6729 21.97 15.6119 21.9157C15.5537 21.8639 15.5156 21.7935 15.5039 21.7167L15.5 21.6517V18.3334C15.5 18.3333 15.5 18.3333 15.5 18.3333C15.5 18.2517 15.53 18.1729 15.5842 18.1119C15.636 18.0537 15.7065 18.0155 15.7833 18.0038L15.8483 18H17.5H18V17.5V16.6666V16.6666C18 15.5023 18.4512 14.3833 19.2588 13.5448C20.0654 12.7073 21.1648 12.2146 22.3264 12.1698L22.5044 12.1666H24.9999C25 12.1666 25 12.1666 25 12.1666C25.0816 12.1667 25.1604 12.1966 25.2214 12.2509C25.2796 12.3026 25.3178 12.3731 25.3294 12.4499L25.3333 12.5149V15.8332C25.3333 15.8332 25.3333 15.8333 25.3333 15.8333C25.3333 15.9149 25.3033 15.9937 25.2491 16.0547C25.1973 16.1129 25.1269 16.1511 25.05 16.1627L24.9851 16.1666H22.5H22V16.6666V17.5V18H22.5Z" fill="white" stroke="#223B7D"/>
</g>
<defs>
<clipPath id="clip0_405_15125">
<rect width="20" height="20" fill="white" transform="translate(10 10)"/>
</clipPath>
</defs>
</svg>
