<svg width="14" height="14" viewBox="0 0 14 14" fill="none" xmlns="http://www.w3.org/2000/svg">
<path d="M2.33341 3.00008C2.7016 3.00008 3.00008 2.7016 3.00008 2.33341C3.00008 1.96522 2.7016 1.66675 2.33341 1.66675C1.96522 1.66675 1.66675 1.96522 1.66675 2.33341C1.66675 2.7016 1.96522 3.00008 2.33341 3.00008Z" fill="white"/>
<path d="M7.00008 3.00008C7.36827 3.00008 7.66675 2.7016 7.66675 2.33341C7.66675 1.96522 7.36827 1.66675 7.00008 1.66675C6.63189 1.66675 6.33341 1.96522 6.33341 2.33341C6.33341 2.7016 6.63189 3.00008 7.00008 3.00008Z" fill="white"/>
<path d="M11.6667 3.00008C12.0349 3.00008 12.3334 2.7016 12.3334 2.33341C12.3334 1.96522 12.0349 1.66675 11.6667 1.66675C11.2986 1.66675 11.0001 1.96522 11.0001 2.33341C11.0001 2.7016 11.2986 3.00008 11.6667 3.00008Z" fill="white"/>
<path d="M2.33341 7.66675C2.7016 7.66675 3.00008 7.36827 3.00008 7.00008C3.00008 6.63189 2.7016 6.33341 2.33341 6.33341C1.96522 6.33341 1.66675 6.63189 1.66675 7.00008C1.66675 7.36827 1.96522 7.66675 2.33341 7.66675Z" fill="white"/>
<path d="M7.00008 7.66675C7.36827 7.66675 7.66675 7.36827 7.66675 7.00008C7.66675 6.63189 7.36827 6.33341 7.00008 6.33341C6.63189 6.33341 6.33341 6.63189 6.33341 7.00008C6.33341 7.36827 6.63189 7.66675 7.00008 7.66675Z" fill="white"/>
<path d="M11.6667 7.66675C12.0349 7.66675 12.3334 7.36827 12.3334 7.00008C12.3334 6.63189 12.0349 6.33341 11.6667 6.33341C11.2986 6.33341 11.0001 6.63189 11.0001 7.00008C11.0001 7.36827 11.2986 7.66675 11.6667 7.66675Z" fill="white"/>
<path d="M2.33341 12.3334C2.7016 12.3334 3.00008 12.0349 3.00008 11.6667C3.00008 11.2986 2.7016 11.0001 2.33341 11.0001C1.96522 11.0001 1.66675 11.2986 1.66675 11.6667C1.66675 12.0349 1.96522 12.3334 2.33341 12.3334Z" fill="white"/>
<path d="M7.00008 12.3334C7.36827 12.3334 7.66675 12.0349 7.66675 11.6667C7.66675 11.2986 7.36827 11.0001 7.00008 11.0001C6.63189 11.0001 6.33341 11.2986 6.33341 11.6667C6.33341 12.0349 6.63189 12.3334 7.00008 12.3334Z" fill="white"/>
<path d="M11.6667 12.3334C12.0349 12.3334 12.3334 12.0349 12.3334 11.6667C12.3334 11.2986 12.0349 11.0001 11.6667 11.0001C11.2986 11.0001 11.0001 11.2986 11.0001 11.6667C11.0001 12.0349 11.2986 12.3334 11.6667 12.3334Z" fill="white"/>
<path d="M2.33341 3.00008C2.7016 3.00008 3.00008 2.7016 3.00008 2.33341C3.00008 1.96522 2.7016 1.66675 2.33341 1.66675C1.96522 1.66675 1.66675 1.96522 1.66675 2.33341C1.66675 2.7016 1.96522 3.00008 2.33341 3.00008Z" stroke="white" stroke-width="2" stroke-linecap="round" stroke-linejoin="round"/>
<path d="M7.00008 3.00008C7.36827 3.00008 7.66675 2.7016 7.66675 2.33341C7.66675 1.96522 7.36827 1.66675 7.00008 1.66675C6.63189 1.66675 6.33341 1.96522 6.33341 2.33341C6.33341 2.7016 6.63189 3.00008 7.00008 3.00008Z" stroke="white" stroke-width="2" stroke-linecap="round" stroke-linejoin="round"/>
<path d="M11.6667 3.00008C12.0349 3.00008 12.3334 2.7016 12.3334 2.33341C12.3334 1.96522 12.0349 1.66675 11.6667 1.66675C11.2986 1.66675 11.0001 1.96522 11.0001 2.33341C11.0001 2.7016 11.2986 3.00008 11.6667 3.00008Z" stroke="white" stroke-width="2" stroke-linecap="round" stroke-linejoin="round"/>
<path d="M2.33341 7.66675C2.7016 7.66675 3.00008 7.36827 3.00008 7.00008C3.00008 6.63189 2.7016 6.33341 2.33341 6.33341C1.96522 6.33341 1.66675 6.63189 1.66675 7.00008C1.66675 7.36827 1.96522 7.66675 2.33341 7.66675Z" stroke="white" stroke-width="2" stroke-linecap="round" stroke-linejoin="round"/>
<path d="M7.00008 7.66675C7.36827 7.66675 7.66675 7.36827 7.66675 7.00008C7.66675 6.63189 7.36827 6.33341 7.00008 6.33341C6.63189 6.33341 6.33341 6.63189 6.33341 7.00008C6.33341 7.36827 6.63189 7.66675 7.00008 7.66675Z" stroke="white" stroke-width="2" stroke-linecap="round" stroke-linejoin="round"/>
<path d="M11.6667 7.66675C12.0349 7.66675 12.3334 7.36827 12.3334 7.00008C12.3334 6.63189 12.0349 6.33341 11.6667 6.33341C11.2986 6.33341 11.0001 6.63189 11.0001 7.00008C11.0001 7.36827 11.2986 7.66675 11.6667 7.66675Z" stroke="white" stroke-width="2" stroke-linecap="round" stroke-linejoin="round"/>
<path d="M2.33341 12.3334C2.7016 12.3334 3.00008 12.0349 3.00008 11.6667C3.00008 11.2986 2.7016 11.0001 2.33341 11.0001C1.96522 11.0001 1.66675 11.2986 1.66675 11.6667C1.66675 12.0349 1.96522 12.3334 2.33341 12.3334Z" stroke="white" stroke-width="2" stroke-linecap="round" stroke-linejoin="round"/>
<path d="M7.00008 12.3334C7.36827 12.3334 7.66675 12.0349 7.66675 11.6667C7.66675 11.2986 7.36827 11.0001 7.00008 11.0001C6.63189 11.0001 6.33341 11.2986 6.33341 11.6667C6.33341 12.0349 6.63189 12.3334 7.00008 12.3334Z" stroke="white" stroke-width="2" stroke-linecap="round" stroke-linejoin="round"/>
<path d="M11.6667 12.3334C12.0349 12.3334 12.3334 12.0349 12.3334 11.6667C12.3334 11.2986 12.0349 11.0001 11.6667 11.0001C11.2986 11.0001 11.0001 11.2986 11.0001 11.6667C11.0001 12.0349 11.2986 12.3334 11.6667 12.3334Z" stroke="white" stroke-width="2" stroke-linecap="round" stroke-linejoin="round"/>
</svg>
