<svg width="100" height="100" viewBox="0 0 100 100" fill="none" xmlns="http://www.w3.org/2000/svg">
<path d="M37.5 50L45.8334 58.3333L62.5 41.6667M50.0001 12.5C59.7327 21.1107 72.4354 25.594 85.4168 25C87.3068 31.4292 87.8851 38.1728 87.1173 44.8299C86.3496 51.4871 84.2514 57.922 80.9476 63.7522C77.6438 69.5825 73.2017 74.6891 67.8854 78.7687C62.569 82.8482 56.4867 85.8175 50.0001 87.5C43.5135 85.8175 37.4313 82.8482 32.1149 78.7687C26.7985 74.6891 22.3564 69.5825 19.0526 63.7522C15.7488 57.922 13.6507 51.4871 12.8829 44.8299C12.1152 38.1728 12.6935 31.4292 14.5835 25C27.5648 25.594 40.2675 21.1107 50.0001 12.5Z" stroke="#282A2C" stroke-width="2" stroke-linecap="round" stroke-linejoin="round"/>
</svg>
