<svg width="20" height="20" viewBox="0 0 20 20" fill="none" xmlns="http://www.w3.org/2000/svg">
<g clip-path="url(#clip0_502_14624)">
<path d="M10 11C10.5523 11 11 10.5523 11 10C11 9.44772 10.5523 9 10 9C9.44772 9 9 9.44772 9 10C9 10.5523 9.44772 11 10 11Z" stroke="#282828" stroke-linecap="round" stroke-linejoin="round"/>
<path d="M15 10C13.6665 12.3335 12 13.5 10 13.5C8 13.5 6.3335 12.3335 5 10C6.3335 7.6665 8 6.5 10 6.5C12 6.5 13.6665 7.6665 15 10Z" stroke="#282828" stroke-linecap="round" stroke-linejoin="round"/>
<path d="M3.615 4.60834C7.87 6.21834 12.1242 6.21834 16.3792 4.61001C16.5048 4.56382 16.6397 4.54858 16.7725 4.56559C16.9053 4.58259 17.032 4.63133 17.142 4.70769C17.252 4.78405 17.3419 4.88577 17.4042 5.00425C17.4665 5.12273 17.4994 5.25447 17.5 5.38834V14.555C17.5 15.1317 16.9233 15.555 16.3833 15.3567C12.1275 13.7467 7.87167 13.7467 3.61583 15.3567C3.07583 15.5617 2.5 15.155 2.5 14.5775V5.38834C2.50082 5.25511 2.53357 5.12401 2.59551 5.00605C2.65745 4.88809 2.74677 4.7867 2.85598 4.71038C2.96519 4.63406 3.09111 4.58504 3.22318 4.56743C3.35524 4.54982 3.48961 4.5633 3.615 4.60834Z" stroke="#282828" stroke-linecap="round" stroke-linejoin="round"/>
</g>
<defs>
<clipPath id="clip0_502_14624">
<rect width="20" height="20" fill="white"/>
</clipPath>
</defs>
</svg>
