<svg width="20" height="20" viewBox="0 0 20 20" fill="none" xmlns="http://www.w3.org/2000/svg">
<path d="M16.25 10.4766L9.99997 16.6666L3.74997 10.4766C3.33772 10.0754 3.013 9.59325 2.79626 9.06043C2.57951 8.52762 2.47543 7.9557 2.49058 7.38068C2.50573 6.80567 2.63977 6.24002 2.88426 5.71935C3.12876 5.19868 3.47841 4.73428 3.9112 4.35539C4.344 3.97649 4.85055 3.69131 5.39898 3.5178C5.9474 3.3443 6.5258 3.28622 7.09777 3.34724C7.66974 3.40825 8.22288 3.58703 8.72236 3.87233C9.22184 4.15762 9.65684 4.54324 9.99997 5.0049C10.3446 4.54659 10.7801 4.16434 11.2792 3.88207C11.7784 3.59981 12.3304 3.42361 12.9007 3.3645C13.4711 3.3054 14.0475 3.36465 14.5939 3.53856C15.1404 3.71247 15.645 3.9973 16.0763 4.37521C16.5075 4.75311 16.8562 5.21597 17.1003 5.73481C17.3445 6.25365 17.4789 6.81731 17.4952 7.39049C17.5115 7.96368 17.4093 8.53406 17.1951 9.06594C16.9808 9.59783 16.6591 10.0798 16.25 10.4816" stroke="#282828" stroke-linecap="round" stroke-linejoin="round"/>
</svg>
