<svg width="20" height="20" viewBox="0 0 20 20" fill="none" xmlns="http://www.w3.org/2000/svg">
<path d="M5.00004 14.1667C4.07957 14.1667 3.33337 14.9129 3.33337 15.8333C3.33337 16.7538 4.07957 17.5 5.00004 17.5C5.92052 17.5 6.66671 16.7538 6.66671 15.8333C6.66671 14.9129 5.92052 14.1667 5.00004 14.1667ZM5.00004 14.1667H14.1667M5.00004 14.1667V2.5H3.33337M14.1667 14.1667C13.2462 14.1667 12.5 14.9129 12.5 15.8333C12.5 16.7538 13.2462 17.5 14.1667 17.5C15.0872 17.5 15.8334 16.7538 15.8334 15.8333C15.8334 14.9129 15.0872 14.1667 14.1667 14.1667ZM5.00004 4.16667L16.6667 5L15.8334 10.8333H5.00004" stroke="#282828" stroke-linecap="round" stroke-linejoin="round"/>
</svg>
