<svg width="100" height="100" viewBox="0 0 100 100" fill="none" xmlns="http://www.w3.org/2000/svg">
<path d="M50 54.1667C52.3012 54.1667 54.1667 52.3012 54.1667 50C54.1667 47.6988 52.3012 45.8333 50 45.8333C47.6988 45.8333 45.8333 47.6988 45.8333 50C45.8333 52.3012 47.6988 54.1667 50 54.1667Z" stroke="#282A2C" stroke-width="2" stroke-linecap="round" stroke-linejoin="round"/>
<path d="M50 70.8333C61.5059 70.8333 70.8333 61.5059 70.8333 50C70.8333 38.4941 61.5059 29.1667 50 29.1667C38.4941 29.1667 29.1667 38.4941 29.1667 50C29.1667 61.5059 38.4941 70.8333 50 70.8333Z" stroke="#282A2C" stroke-width="2" stroke-linecap="round" stroke-linejoin="round"/>
<path d="M50 87.5C70.7107 87.5 87.5 70.7107 87.5 50C87.5 29.2893 70.7107 12.5 50 12.5C29.2893 12.5 12.5 29.2893 12.5 50C12.5 70.7107 29.2893 87.5 50 87.5Z" stroke="#282A2C" stroke-width="2" stroke-linecap="round" stroke-linejoin="round"/>
</svg>
