<svg width="100" height="100" viewBox="0 0 100 100" fill="none" xmlns="http://www.w3.org/2000/svg">
<path d="M37.5001 50L45.8334 58.3333L62.5001 41.6667M20.8333 30C20.8333 27.5689 21.7991 25.2373 23.5182 23.5182C25.2372 21.7991 27.5688 20.8333 30 20.8333H34.1666C36.587 20.832 38.9087 19.8734 40.625 18.1667L43.5416 15.25C44.3935 14.3933 45.4063 13.7135 46.5218 13.2496C47.6373 12.7857 48.8335 12.5469 50.0416 12.5469C51.2498 12.5469 52.446 12.7857 53.5615 13.2496C54.677 13.7135 55.6898 14.3933 56.5416 15.25L59.4583 18.1667C61.175 19.875 63.5 20.8333 65.9166 20.8333H70.0833C72.5145 20.8333 74.846 21.7991 76.5651 23.5182C78.2842 25.2373 79.25 27.5689 79.25 30V34.1667C79.25 36.5833 80.2083 38.9083 81.9166 40.625L84.8333 43.5417C85.69 44.3935 86.3698 45.4063 86.8337 46.5219C87.2976 47.6374 87.5364 48.8336 87.5364 50.0417C87.5364 51.2498 87.2976 52.446 86.8337 53.5615C86.3698 54.677 85.69 55.6898 84.8333 56.5417L81.9166 59.4583C80.21 61.1746 79.2514 63.4963 79.25 65.9167V70.0833C79.25 72.5145 78.2842 74.8461 76.5651 76.5652C74.846 78.2842 72.5145 79.25 70.0833 79.25H65.9166C63.4962 79.2514 61.1746 80.21 59.4583 81.9167L56.5416 84.8333C55.6898 85.69 54.677 86.3698 53.5615 86.8337C52.446 87.2976 51.2498 87.5364 50.0416 87.5364C48.8335 87.5364 47.6373 87.2976 46.5218 86.8337C45.4063 86.3698 44.3935 85.69 43.5416 84.8333L40.625 81.9167C38.9087 80.21 36.587 79.2514 34.1666 79.25H30C27.5688 79.25 25.2372 78.2842 23.5182 76.5652C21.7991 74.8461 20.8333 72.5145 20.8333 70.0833V65.9167C20.8319 63.4963 19.8733 61.1746 18.1666 59.4583L15.25 56.5417C14.3933 55.6898 13.7135 54.677 13.2496 53.5615C12.7857 52.446 12.5469 51.2498 12.5469 50.0417C12.5469 48.8336 12.7857 47.6374 13.2496 46.5219C13.7135 45.4063 14.3933 44.3935 15.25 43.5417L18.1666 40.625C19.8733 38.9087 20.8319 36.5871 20.8333 34.1667V30Z" stroke="#282A2C" stroke-width="2" stroke-linecap="round" stroke-linejoin="round"/>
</svg>
