<svg width="20" height="20" viewBox="0 0 20 20" fill="none" xmlns="http://www.w3.org/2000/svg">
<g id="Icons">
<path id="Vector" d="M7.25001 8.91666L12.75 6.08332M7.25001 11.0834L12.75 13.9167M7.5 10C7.5 11.3807 6.38071 12.5 5 12.5C3.61929 12.5 2.5 11.3807 2.5 10C2.5 8.61929 3.61929 7.5 5 7.5C6.38071 7.5 7.5 8.61929 7.5 10ZM17.5 5C17.5 6.38071 16.3807 7.5 15 7.5C13.6193 7.5 12.5 6.38071 12.5 5C12.5 3.61929 13.6193 2.5 15 2.5C16.3807 2.5 17.5 3.61929 17.5 5ZM17.5 15C17.5 16.3807 16.3807 17.5 15 17.5C13.6193 17.5 12.5 16.3807 12.5 15C12.5 13.6193 13.6193 12.5 15 12.5C16.3807 12.5 17.5 13.6193 17.5 15Z" stroke="#282828" stroke-linecap="round" stroke-linejoin="round"/>
</g>
</svg>
