<svg width="40" height="40" viewBox="0 0 40 40" fill="none" xmlns="http://www.w3.org/2000/svg">
<rect width="40" height="40" rx="10" fill="#333333"/>
<path d="M20.0006 17.3966C18.567 17.3966 17.3971 18.5665 17.3971 20.0001C17.3971 21.4337 18.567 22.6036 20.0006 22.6036C21.4342 22.6036 22.6041 21.4337 22.6041 20.0001C22.6041 18.5665 21.4342 17.3966 20.0006 17.3966ZM27.8092 20.0001C27.8092 18.922 27.8189 17.8536 27.7584 16.7774C27.6978 15.5274 27.4127 14.4181 26.4986 13.504C25.5826 12.588 24.4752 12.3048 23.2252 12.2442C22.1471 12.1837 21.0787 12.1935 20.0025 12.1935C18.9244 12.1935 17.856 12.1837 16.7799 12.2442C15.5299 12.3048 14.4205 12.5899 13.5064 13.504C12.5904 14.42 12.3072 15.5274 12.2467 16.7774C12.1861 17.8556 12.1959 18.9239 12.1959 20.0001C12.1959 21.0763 12.1861 22.1466 12.2467 23.2227C12.3072 24.4727 12.5924 25.5821 13.5064 26.4962C14.4225 27.4122 15.5299 27.6954 16.7799 27.756C17.858 27.8165 18.9264 27.8067 20.0025 27.8067C21.0807 27.8067 22.149 27.8165 23.2252 27.756C24.4752 27.6954 25.5846 27.4102 26.4986 26.4962C27.4146 25.5802 27.6978 24.4727 27.7584 23.2227C27.8209 22.1466 27.8092 21.0782 27.8092 20.0001ZM20.0006 24.006C17.7838 24.006 15.9947 22.2169 15.9947 20.0001C15.9947 17.7833 17.7838 15.9942 20.0006 15.9942C22.2174 15.9942 24.0064 17.7833 24.0064 20.0001C24.0064 22.2169 22.2174 24.006 20.0006 24.006ZM24.1705 16.7657C23.6529 16.7657 23.235 16.3477 23.235 15.8302C23.235 15.3126 23.6529 14.8946 24.1705 14.8946C24.6881 14.8946 25.1061 15.3126 25.1061 15.8302C25.1062 15.9531 25.0821 16.0748 25.0351 16.1884C24.9882 16.3019 24.9193 16.4051 24.8324 16.492C24.7455 16.579 24.6423 16.6479 24.5287 16.6948C24.4151 16.7418 24.2934 16.7659 24.1705 16.7657Z" fill="white"/>
</svg>
