<svg width="117" height="50" viewBox="0 0 117 50" fill="none" xmlns="http://www.w3.org/2000/svg">
<path d="M70.7773 24.5999C70.5273 23.8347 70.1978 23.1491 69.7887 22.543C69.3872 21.9294 68.9061 21.4067 68.3455 20.9749C67.7925 20.543 67.1637 20.2135 66.4591 19.9862C65.7546 19.7589 64.9819 19.6453 64.141 19.6453C62.7622 19.6453 61.5084 20.0014 60.3796 20.7135C59.2508 21.4256 58.3531 22.4749 57.6864 23.8612C57.0197 25.2476 56.6864 26.9483 56.6864 28.9635C56.6864 30.9786 57.0235 32.6794 57.6978 34.0658C58.372 35.4521 59.2849 36.5014 60.4364 37.2135C61.5879 37.9256 62.8834 38.2817 64.3228 38.2817C65.6561 38.2817 66.8304 37.9976 67.8455 37.4294C68.8682 36.8536 69.6637 36.043 70.2319 34.9976C70.8076 33.9446 71.0955 32.7059 71.0955 31.2817L71.9591 31.4635H64.9591V28.9635H73.8228V31.4635C73.8228 33.3802 73.4137 35.0468 72.5955 36.4635C71.7849 37.8802 70.6637 38.9786 69.2319 39.7589C67.8076 40.5317 66.1713 40.918 64.3228 40.918C62.2622 40.918 60.4516 40.4332 58.891 39.4635C57.3379 38.4938 56.1258 37.115 55.2546 35.3271C54.391 33.5392 53.9591 31.418 53.9591 28.9635C53.9591 27.1226 54.2054 25.4673 54.6978 23.9976C55.1978 22.5203 55.9023 21.2627 56.8114 20.2249C57.7205 19.187 58.7963 18.3915 60.0387 17.8385C61.2811 17.2855 62.6485 17.0089 64.141 17.0089C65.3682 17.0089 66.5122 17.1945 67.5728 17.5658C68.641 17.9294 69.5917 18.4483 70.425 19.1226C71.266 19.7892 71.9667 20.5885 72.5273 21.5203C73.0879 22.4446 73.4743 23.4711 73.6864 24.5999H70.7773ZM78.2858 40.5999V23.1453H80.8768V25.7817H81.0586C81.3768 24.918 81.9525 24.2173 82.7858 23.6794C83.6192 23.1415 84.5586 22.8726 85.604 22.8726C85.801 22.8726 86.0472 22.8764 86.3427 22.8839C86.6381 22.8915 86.8616 22.9029 87.0131 22.918V25.6453C86.9222 25.6226 86.7139 25.5885 86.3881 25.543C86.0699 25.49 85.7328 25.4635 85.3768 25.4635C84.5283 25.4635 83.7707 25.6415 83.104 25.9976C82.4449 26.3461 81.9222 26.8309 81.5358 27.4521C81.1571 28.0658 80.9677 28.7665 80.9677 29.5544V40.5999H78.2858ZM90.1921 40.5999V23.1453H92.783V25.8726H93.0103C93.3739 24.9408 93.961 24.2173 94.7716 23.7021C95.5822 23.1794 96.5557 22.918 97.6921 22.918C98.8436 22.918 99.8019 23.1794 100.567 23.7021C101.34 24.2173 101.942 24.9408 102.374 25.8726H102.556C103.003 24.9711 103.673 24.2552 104.567 23.7249C105.461 23.187 106.533 22.918 107.783 22.918C109.344 22.918 110.62 23.4067 111.613 24.3839C112.605 25.3536 113.101 26.865 113.101 28.918V40.5999H110.419V28.918C110.419 27.6302 110.067 26.7097 109.363 26.1567C108.658 25.6036 107.828 25.3271 106.874 25.3271C105.647 25.3271 104.696 25.6983 104.022 26.4408C103.347 27.1756 103.01 28.1074 103.01 29.2362V40.5999H100.283V28.6453C100.283 27.6529 99.961 26.8536 99.3171 26.2476C98.6732 25.6339 97.8436 25.3271 96.8285 25.3271C96.1315 25.3271 95.48 25.5127 94.8739 25.8839C94.2754 26.2552 93.7906 26.7703 93.4194 27.4294C93.0557 28.0809 92.8739 28.8347 92.8739 29.6908V40.5999H90.1921Z" fill="#282828"/>
<path d="M22.8 2.07822L16.1245 26.5527C14.7998 31.4096 21.0379 34.6376 24.2376 30.7508V30.7508C27.4442 26.8556 23.0536 21.3471 18.5414 23.6042L16.7962 24.4772L25.3426 19.571C32.7264 15.3322 41.9621 20.5045 42.2059 29.015V29.015C42.3876 35.3582 37.2949 40.5988 30.9492 40.5988L3.78179 40.5988" stroke="#F8501A" stroke-width="3"/>
</svg>
