
<svg width="28" height="28" viewBox="0 0 28 28" fill="none" xmlns="http://www.w3.org/2000/svg">
<g id="IMAGE" clip-path="url(#clip0_664_16888)">
<g id="Clip path group">
<mask id="mask0_664_16888" style="mask-type:luminance" maskUnits="userSpaceOnUse" x="0" y="0" width="28" height="28">
<g id="clip0_56_20542">
<path id="Vector" d="M28 0H0V28H28V0Z" fill="white"/>
</g>
</mask>
<g mask="url(#mask0_664_16888)">
<g id="Group">
<path id="Vector_2" d="M0.536967 13.7784L3.45402 12.1273C3.5641 12.0722 3.67417 12.0722 3.72921 12.1273L7.80208 13.8335C7.91216 13.8885 8.02224 13.9986 8.02224 14.1637V17.0808C8.02224 17.2459 7.85712 17.411 7.692 17.411C7.63696 17.411 7.58193 17.411 7.58193 17.411L0.592006 14.3839C0.42689 14.3288 0.371851 14.1087 0.42689 13.9436C0.42689 13.8885 0.481929 13.8335 0.536967 13.7784Z" fill="white"/>
<path id="Vector_3" d="M0.5372 7.72544L8.9031 3.04714C9.01318 2.9921 9.12325 2.9921 9.17829 3.04714L15.5078 5.63396C15.6729 5.689 15.7279 5.90916 15.6729 6.07427C15.6729 6.12931 15.6178 6.12931 15.6178 6.18435L7.96744 11.303C7.85736 11.358 7.74728 11.358 7.63721 11.303L0.592239 8.33086C0.427122 8.27582 0.317045 8.05567 0.427122 7.89055C0.427122 7.83551 0.482161 7.78048 0.5372 7.72544Z" fill="#A6D84E"/>
<path id="Vector_4" d="M7.47266 20.3285V10.9719L15.5083 5.57812L20.0765 7.44944L11.9308 12.8982V22.2548L7.47266 20.3285Z" fill="white"/>
<path id="Vector_5" d="M0.536967 16.8057L3.45402 15.1546C3.5641 15.0995 3.67417 15.0995 3.72921 15.1546L7.80208 16.8608C7.91216 16.9158 8.02224 17.0259 8.02224 17.191V20.1081C8.02224 20.2732 7.85712 20.4383 7.692 20.4383C7.63696 20.4383 7.58193 20.4383 7.58193 20.4383L0.592006 17.4112C0.42689 17.3561 0.371851 17.136 0.42689 16.9709C0.42689 16.9158 0.481929 16.8608 0.536967 16.8057Z" fill="#A6D84E"/>
<path id="Vector_6" d="M0.5372 10.751L3.45425 9.09987C3.56433 9.04483 3.67441 9.04483 3.72945 9.09987L7.80232 10.8061C7.91239 10.8611 8.02247 10.9712 8.02247 11.1363V14.0534C8.02247 14.2185 7.85735 14.3836 7.69224 14.3836C7.6372 14.3836 7.58216 14.3836 7.58216 14.3836L0.592238 11.3565C0.427122 11.3014 0.317045 11.0813 0.427122 10.9162C0.427122 10.8611 0.482161 10.8061 0.5372 10.751Z" fill="white"/>
<path id="Vector_7" d="M11.3828 21.7603V18.8983C11.3828 18.7332 11.5479 18.5681 11.713 18.5681C11.7681 18.5681 11.8231 18.5681 11.8231 18.5681L18.5929 21.4301C18.7029 21.4851 18.813 21.4851 18.8681 21.4301L24.0967 18.3479C24.2068 18.2929 24.3169 18.2929 24.3719 18.3479L27.289 19.5037C27.4541 19.6138 27.5092 19.7789 27.3991 19.944C27.3991 19.9991 27.344 19.9991 27.344 20.0541L18.9231 25.0076C18.813 25.0627 18.7029 25.0627 18.6479 25.0076L11.5479 22.0355C11.4929 22.0355 11.3828 21.9254 11.3828 21.7603Z" fill="#A6D84E"/>
<path id="Vector_8" d="M11.3828 15.7056V12.8436C11.3828 12.6785 11.5479 12.5134 11.713 12.5134C11.7681 12.5134 11.8231 12.5134 11.8231 12.5134L18.5929 15.3754C18.7029 15.4304 18.813 15.4304 18.8681 15.3754L24.0967 12.2932C24.2068 12.2382 24.3169 12.2382 24.3719 12.2932L27.289 13.449C27.4541 13.5591 27.5092 13.7242 27.3991 13.8893C27.3991 13.9444 27.344 13.9444 27.344 13.9994L18.9231 18.9529C18.813 19.008 18.7029 19.008 18.6479 18.9529L11.5479 15.9808C11.4929 15.9808 11.3828 15.8707 11.3828 15.7056Z" fill="white"/>
<path id="Vector_9" d="M11.5992 12.4588L19.3046 7.3402C19.4147 7.28516 19.5248 7.28516 19.6348 7.28516L27.3953 10.4774C27.5604 10.5324 27.6705 10.7526 27.5604 10.9177C27.5604 10.9727 27.5054 11.0278 27.4503 11.0828L19.0294 16.0363C18.9193 16.0913 18.8093 16.0913 18.7542 16.0363L11.7093 13.0642C11.5441 13.0092 11.4891 12.789 11.5441 12.6239C11.5441 12.5138 11.5441 12.5138 11.5992 12.4588Z" fill="#A6D84E"/>
<path id="Vector_10" d="M11.3828 18.7333V15.8163C11.3828 15.6512 11.5479 15.486 11.713 15.486C11.7681 15.486 11.8231 15.486 11.8231 15.486L18.5929 18.3481C18.7029 18.4031 18.813 18.4031 18.8681 18.3481L24.0967 15.2659C24.2068 15.2108 24.3169 15.2108 24.3719 15.2659L27.289 16.4767C27.4541 16.5318 27.5642 16.7519 27.4541 16.9171C27.4541 16.9721 27.3991 17.0271 27.344 17.0822L18.9231 22.0357C18.813 22.0907 18.7029 22.0907 18.6479 22.0357L11.5479 19.0085C11.4929 19.0085 11.3828 18.8985 11.3828 18.7333Z" fill="white"/>
<path id="Vector_11" d="M27.8918 10.6968C27.8918 10.4767 27.7267 10.3116 27.5616 10.2015L19.691 6.95418L15.7833 5.30301C15.7282 5.30301 15.6732 5.24798 15.5631 5.24798L9.23365 2.66115C9.06854 2.60612 8.90342 2.60612 8.7383 2.71619L0.317376 7.5596C0.0421821 7.66968 -0.0678954 7.99991 0.0972208 8.27511C0.0972208 8.38518 0.207298 8.49526 0.372415 8.5503L2.40885 9.37588L0.317376 10.5317C0.0421821 10.6968 -0.0128567 11.0271 0.0972208 11.3023C0.15226 11.4123 0.262337 11.4674 0.372415 11.5224L2.40885 12.403L0.317376 13.5589C0.0421821 13.6689 -0.0678954 13.9992 0.0421821 14.2744C0.0972208 14.4395 0.207298 14.5496 0.372415 14.6046L2.40885 15.4302L0.317376 16.586C0.0421821 16.7511 -0.0128567 17.0813 0.0972208 17.3565C0.15226 17.4666 0.262337 17.5216 0.372415 17.5767L7.47241 20.6038L7.52745 20.6589L11.4352 22.31L18.5902 25.3372C18.7554 25.3922 18.9205 25.3922 19.0856 25.2821L27.6166 20.2736C27.8918 20.1085 27.9468 19.7782 27.8368 19.503C27.7817 19.393 27.6716 19.3379 27.5616 19.2829L25.5802 18.4573L27.6716 17.2465C27.9468 17.0813 28.0019 16.7511 27.8918 16.4759C27.8368 16.3658 27.7267 16.3108 27.6166 16.2558L25.6352 15.4302L27.7267 14.2193C28.0019 14.0542 28.0569 13.724 27.9468 13.4488C27.8918 13.3387 27.7817 13.2837 27.6716 13.2286L25.6902 12.403L27.7817 11.1922C27.8368 11.1372 27.9468 10.917 27.8918 10.6968ZM7.19722 19.3379L1.80342 17.0263L3.67474 15.9806L7.19722 17.4666V19.3379ZM7.19722 16.3108L1.80342 13.9992L3.67474 12.9534L7.19722 14.4395V16.3108ZM7.19722 13.2837L1.80342 10.972L3.67474 9.92627L7.19722 11.4123V13.2837ZM1.80342 7.94487L9.06854 3.87201L14.3523 6.01852L7.69257 10.4767L1.80342 7.94487ZM11.3802 12.293C11.215 12.403 11.16 12.5682 11.16 12.7333V20.9891L8.35303 19.7782V11.4123L15.6181 6.51387L18.315 7.61464L11.3802 12.293ZM26.1305 19.9434L18.8104 24.2364L12.2608 21.4294V19.6131L18.5902 22.31C18.7554 22.3651 18.9205 22.3651 19.0856 22.255L24.3693 19.1728L26.1305 19.9434ZM26.1305 16.9162L18.8104 21.2092L12.2608 18.4023V16.586L18.6453 19.2829C18.8104 19.3379 18.9755 19.3379 19.1406 19.2278L24.4243 16.1457L26.1305 16.9162ZM26.1305 13.8891L18.8104 18.1821L12.2608 15.3751V13.5589L18.5902 16.2558C18.6453 16.3108 18.7554 16.3108 18.8104 16.3108C18.9205 16.3108 19.0306 16.3108 19.0856 16.2558L24.3693 13.1736L26.1305 13.8891ZM18.8104 15.155L12.8662 12.6232L19.5809 8.16503L26.1856 10.862L18.8104 15.155Z" fill="#282A2C"/>
</g>
</g>
</g>
</g>
<defs>
<clipPath id="clip0_664_16888">
<rect width="28" height="28" fill="white"/>
</clipPath>
</defs>
</svg>
