
<svg width="30" height="30" viewBox="0 0 30 30" fill="none" xmlns="http://www.w3.org/2000/svg">
<path d="M0 15C0 6.71573 6.71573 0 15 0C23.2843 0 30 6.71573 30 15C30 23.2843 23.2843 30 15 30C6.71573 30 0 23.2843 0 15Z" fill="#282A2C"/>
<path d="M11.3608 20V18.9773L15.2017 14.7727C15.6525 14.2803 16.0237 13.8523 16.3153 13.4886C16.607 13.1212 16.8229 12.7765 16.9631 12.4545C17.107 12.1288 17.179 11.7879 17.179 11.4318C17.179 11.0227 17.0805 10.6686 16.8835 10.3693C16.6903 10.0701 16.4252 9.83901 16.0881 9.67614C15.7509 9.51326 15.3722 9.43182 14.9517 9.43182C14.5047 9.43182 14.1146 9.52462 13.7812 9.71023C13.4517 9.89205 13.196 10.1477 13.0142 10.4773C12.8362 10.8068 12.7472 11.1932 12.7472 11.6364H11.4062C11.4062 10.9545 11.5634 10.3561 11.8778 9.84091C12.1922 9.32576 12.6203 8.92424 13.1619 8.63636C13.7074 8.34848 14.3191 8.20455 14.9972 8.20455C15.679 8.20455 16.2831 8.34848 16.8097 8.63636C17.3362 8.92424 17.7491 9.3125 18.0483 9.80114C18.3475 10.2898 18.4972 10.8333 18.4972 11.4318C18.4972 11.8598 18.4195 12.2784 18.2642 12.6875C18.1127 13.0928 17.8475 13.5455 17.4688 14.0455C17.0938 14.5417 16.5729 15.1477 15.9062 15.8636L13.2926 18.6591V18.75H18.7017V20H11.3608Z" fill="white"/>
</svg>
