<svg width="30" height="30" viewBox="0 0 30 30" fill="none" xmlns="http://www.w3.org/2000/svg">
<path d="M0 15C0 6.71573 6.71573 0 15 0C23.2843 0 30 6.71573 30 15C30 23.2843 23.2843 30 15 30C6.71573 30 0 23.2843 0 15Z" fill="#282A2C"/>
<path d="M15.5426 20.1591C14.7926 20.1591 14.1241 20.0303 13.5369 19.7727C12.9536 19.5152 12.4896 19.1572 12.1449 18.6989C11.804 18.2367 11.6184 17.7008 11.5881 17.0909H13.0199C13.0502 17.4659 13.179 17.7898 13.4062 18.0625C13.6335 18.3314 13.9309 18.5398 14.2983 18.6875C14.6657 18.8352 15.0729 18.9091 15.5199 18.9091C16.0199 18.9091 16.4631 18.822 16.8494 18.6477C17.2358 18.4735 17.5388 18.2311 17.7585 17.9205C17.9782 17.6098 18.0881 17.25 18.0881 16.8409C18.0881 16.4129 17.982 16.036 17.7699 15.7102C17.5578 15.3807 17.2472 15.1231 16.8381 14.9375C16.429 14.7519 15.929 14.6591 15.3381 14.6591H14.4062V13.4091H15.3381C15.8002 13.4091 16.2055 13.3258 16.554 13.1591C16.9063 12.9924 17.1809 12.7576 17.3778 12.4545C17.5786 12.1515 17.679 11.7955 17.679 11.3864C17.679 10.9924 17.5919 10.6496 17.4176 10.358C17.2434 10.0663 16.9972 9.83901 16.679 9.67614C16.3646 9.51326 15.9934 9.43182 15.5653 9.43182C15.1638 9.43182 14.785 9.50568 14.429 9.65341C14.0767 9.79735 13.7888 10.0076 13.5653 10.2841C13.3419 10.5568 13.2206 10.8864 13.2017 11.2727H11.8381C11.8608 10.6629 12.0445 10.1288 12.3892 9.67045C12.7339 9.20833 13.1847 8.84848 13.7415 8.59091C14.3021 8.33333 14.9176 8.20455 15.5881 8.20455C16.3078 8.20455 16.9252 8.35038 17.4403 8.64205C17.9555 8.92992 18.3513 9.31061 18.6278 9.78409C18.9044 10.2576 19.0426 10.7689 19.0426 11.3182C19.0426 11.9735 18.8703 12.5322 18.5256 12.9943C18.1847 13.4564 17.7206 13.7765 17.1335 13.9545V14.0455C17.8684 14.1667 18.4422 14.4792 18.8551 14.983C19.268 15.483 19.4744 16.1023 19.4744 16.8409C19.4744 17.4735 19.3021 18.0417 18.9574 18.5455C18.6165 19.0455 18.1506 19.4394 17.5597 19.7273C16.9688 20.0152 16.2964 20.1591 15.5426 20.1591Z" fill="white"/>
</svg>
