<svg width="82" height="50" viewBox="0 0 82 50" fill="none" xmlns="http://www.w3.org/2000/svg">
<rect width="82" height="50" fill="white"/>
<path fill-rule="evenodd" clip-rule="evenodd" d="M66.7131 23.7993C67.0744 24.2859 67.1107 25.0527 66.7273 25.6469C66.3849 26.1777 64.3359 28.2144 63.6692 28.8689C63.0912 29.4374 62.3111 30.0067 61.5432 30.0067H45.4662C43.2934 30.0067 43.1624 29.3133 43.1624 27.7458V21.387C43.1624 19.786 43.6644 19.3232 45.1481 19.3232H61.5432C62.3111 19.3232 62.9944 19.6921 63.7792 20.4432C64.4455 21.0806 66.4359 23.425 66.7131 23.7993Z" fill="#33CCCC"/>
<path fill-rule="evenodd" clip-rule="evenodd" d="M66.7131 23.7993C67.0744 24.2859 67.1107 25.0527 66.7273 25.6469C66.3849 26.1777 64.3359 28.2144 63.6692 28.8689C63.0912 29.4374 62.3111 30.0067 61.5432 30.0067H45.4662C43.2934 30.0067 43.1624 29.3133 43.1624 27.7458V21.387C43.1624 19.786 43.6644 19.3232 45.1481 19.3232H61.5432C62.3111 19.3232 62.9944 19.6921 63.7792 20.4432C64.4455 21.0806 66.4359 23.425 66.7131 23.7993Z" fill="url(#paint0_linear_701_14625)"/>
<path fill-rule="evenodd" clip-rule="evenodd" d="M46.8071 21.782V21.7401C46.8071 21.5357 46.7888 21.3336 46.4329 21.3336H45.0894C44.7771 21.3336 44.7573 21.4961 44.7573 21.7487V23.4292C45.4114 22.5489 46.1366 22.14 46.8071 21.782ZM55.8205 27.8543V27.764H55.8214V23.7194C55.8214 22.0232 55.0292 21.1752 53.4447 21.1754C53.0056 21.1715 52.574 21.2826 52.1981 21.4961C51.8209 21.7101 51.4585 22.009 51.1109 22.3927C50.9401 21.9757 50.6824 21.6685 50.338 21.4713C49.9935 21.2741 49.5472 21.1754 48.999 21.1754C48.3645 21.1754 47.6268 21.3846 47.104 21.7894C46.987 21.8997 44.7571 23.5516 44.7571 25.2482V27.8377C44.7571 27.92 44.7148 28.2325 45.0868 28.2325H46.4856C46.9204 28.2325 46.878 27.9645 46.878 27.8543V23.6662C47.1141 23.3714 47.5965 22.6435 48.38 22.6435C48.6808 22.6435 48.8974 22.7393 49.0298 22.9309C49.1622 23.1224 49.2287 23.4437 49.2292 23.8945V27.1656H49.2276V27.8378C49.2276 27.9201 49.1854 28.2326 49.5572 28.2326H50.9381C51.3732 28.2326 51.3308 27.9646 51.3308 27.8544V27.7641H51.3324V23.6664C51.5854 23.3716 52.0894 22.6437 52.8341 22.6437C53.1404 22.6437 53.3614 22.7395 53.497 22.931C53.6325 23.1226 53.7002 23.4438 53.7 23.8947V27.1658H53.6986V27.838C53.6986 27.9203 53.6566 28.2328 54.0287 28.2328H55.4279C55.863 28.2326 55.8205 27.9645 55.8205 27.8543ZM63.5239 26.2098C63.0266 27.4692 61.8352 28.1729 60.359 28.1729C58.2208 28.1729 56.8084 26.8016 56.8084 24.7449C56.8084 22.7129 58.2746 21.2401 60.2924 21.2401C62.2885 21.2401 63.6273 22.5484 63.7123 24.656C63.7231 24.9253 63.6395 25.1632 63.2821 25.1632H58.745C58.7719 26.2933 59.3508 26.9029 60.3727 26.9029C60.996 26.9029 61.3653 26.65 61.6869 26.1543C61.8267 25.9386 62.1133 25.9506 62.1133 25.9506H63.2821C63.4729 25.9504 63.5574 26.1259 63.5239 26.2097V26.2098ZM60.2924 22.5476C59.4443 22.5476 58.8526 23.1062 58.745 24.0209H61.7851C61.7044 23.2209 61.2468 22.5476 60.2924 22.5476Z" fill="white"/>
<path fill-rule="evenodd" clip-rule="evenodd" d="M24.3509 19.3814C24.1711 19.1119 23.938 18.8774 23.6642 18.6907C23.3903 18.5097 23.0896 18.3677 22.7717 18.2694C22.4185 18.1611 22.0538 18.0898 21.6841 18.0567C21.2611 18.0176 20.8364 17.9987 20.4114 18.0001H16.687C16.3521 18.0001 16.001 18.2071 16.001 18.5975V24.2815C16.4728 25.2288 17.3919 26.2346 18.4367 26.7152V25.588C18.4367 24.9931 18.9127 24.8602 19.1096 24.8602H20.2108C21.7277 24.8602 22.8854 24.5604 23.684 23.9608C24.4827 23.362 24.8819 22.4727 24.8819 21.2926C24.8842 20.9517 24.8422 20.6117 24.7568 20.2804C24.672 19.9627 24.535 19.6594 24.3509 19.3814ZM22.1805 22.3006C22.052 22.5106 21.8601 22.6801 21.6294 22.7878C21.3792 22.9001 21.109 22.9675 20.8326 22.9864C20.5316 23.0117 20.2208 23.0244 19.9001 23.0244H18.8536C18.5976 23.0244 18.4367 22.8283 18.4367 22.5389V20.215C18.4367 19.9544 18.6173 19.8451 18.8337 19.8451H19.9001C20.2475 19.8451 20.5732 19.8545 20.8774 19.8734C21.1511 19.8852 21.42 19.9462 21.6693 20.0534C21.8915 20.1529 22.0755 20.3149 22.1957 20.517C22.3225 20.7249 22.3859 21.0182 22.386 21.397C22.386 21.7817 22.3175 22.0828 22.1805 22.3006ZM18.4367 27.0826C17.2875 26.6504 16.5171 26.1348 16.001 25.6237V28.3677C16.001 28.3677 15.9585 28.8152 16.4213 28.8152H18.0462C18.4919 28.8152 18.4369 28.3677 18.4369 28.3677V27.0826H18.4367ZM41.4643 20.9902H40.0061C39.7097 20.9902 39.5144 21.1075 39.3969 21.4142C39.2794 21.721 37.7337 25.7727 37.7337 25.7727C37.7337 25.7727 36.2551 21.8047 36.1388 21.4974C36.0224 21.1902 35.8314 20.9902 35.4871 20.9902H34.1472C33.6745 20.9902 33.6745 21.3397 33.7331 21.4783C33.7806 21.5903 35.6156 26.3239 36.3145 28.1272C36.4793 28.553 36.5444 28.6811 36.5495 28.8388C36.5546 28.9965 36.3842 29.3277 36.2665 29.5177C36.2124 29.6044 36.1503 29.6866 36.0809 29.7631C37.451 29.377 39.0302 27.976 39.8468 26.4583C40.6543 24.3431 41.7192 21.549 41.7653 21.4061C41.8396 21.1746 41.8389 20.9902 41.4643 20.9902ZM35.0252 30.1656C34.8986 30.1635 34.7722 30.1549 34.6466 30.1398C34.4929 30.1207 34.2053 30.1477 34.2053 30.3848V31.4445C34.2053 31.8489 34.4108 31.8759 34.5239 31.8999C34.8641 31.9666 35.2112 31.9982 35.5588 31.994C36.0195 31.994 36.4203 31.9151 36.7613 31.7574C37.1057 31.597 37.4125 31.3734 37.6638 31.0998C37.9409 30.7952 38.175 30.4582 38.3604 30.0972C38.564 29.7092 38.7594 29.2819 38.9466 28.8152C38.9466 28.8152 39.0269 28.6042 39.1591 28.2587C38.7569 28.6408 36.861 30.3329 35.0252 30.1656ZM32.8352 22.2482C32.7561 22.0711 32.648 21.9068 32.5149 21.7611C32.3822 21.6213 32.2304 21.4987 32.0634 21.3966C31.8831 21.2864 31.6919 21.1929 31.4925 21.1175C31.2888 21.0426 31.0793 20.9826 30.8658 20.9379C30.6232 20.8879 30.3769 20.8547 30.1292 20.8386C29.8616 20.8198 29.5608 20.8104 29.2268 20.8102C27.0176 20.8102 25.7597 21.4674 25.453 22.7817C25.3533 23.1895 25.7819 23.2135 25.7819 23.2135H27.1409C27.4957 23.2135 27.4804 23.1059 27.6526 22.8039C27.7146 22.6396 27.8262 22.4959 27.9737 22.3903C28.2345 22.2012 28.6254 22.1067 29.1465 22.1066C29.6478 22.1066 30.012 22.198 30.2391 22.3807C30.4662 22.5635 30.5998 22.841 30.6401 23.2135C30.6401 23.6453 30.4969 23.9335 29.9423 23.9335C28.59 23.8872 27.1368 24.0312 26.3183 24.4729C25.4999 24.9145 25.0372 25.778 25.0372 26.7052C25.0372 27.0834 25.109 27.4146 25.2528 27.6987C25.392 27.9772 25.5979 28.2217 25.8543 28.4129C26.1263 28.6126 26.4381 28.759 26.7713 28.8435C27.15 28.9412 27.5412 28.9891 27.9339 28.9857C28.522 28.9857 29.0416 28.9163 29.4928 28.7774C29.9438 28.6388 30.6417 28.1819 30.7306 28.1152V28.3588C30.7306 28.6002 30.8087 28.8155 31.1147 28.8155H32.695C33.0149 28.8155 33.086 28.6002 33.086 28.3352V23.753C33.0888 23.4681 33.0688 23.1835 33.026 22.9015C32.9921 22.677 32.928 22.4575 32.8352 22.2482ZM30.6803 26.741C30.6803 26.741 30.2722 27.5388 28.8157 27.5388C28.415 27.5388 28.0893 27.4537 27.8385 27.2835C27.5876 27.1132 27.4623 26.8483 27.4625 26.4886C27.4625 26.0215 27.6663 25.6918 28.0742 25.4995C28.4815 25.3073 29.2972 25.1975 29.9084 25.211C30.5196 25.2244 30.6803 25.588 30.6803 25.8389V26.7412V26.741Z" fill="#333333"/>
<defs>
<linearGradient id="paint0_linear_701_14625" x1="74.8761" y1="22.4079" x2="72.1027" y2="40.2055" gradientUnits="userSpaceOnUse">
<stop offset="0.47231" stop-color="#00CCCC"/>
<stop offset="1" stop-color="#3399FF"/>
</linearGradient>
</defs>
</svg>
