
<svg width="50" height="20" viewBox="0 0 50 20" fill="none" xmlns="http://www.w3.org/2000/svg">
<mask id="mask0_664_16875" style="mask-type:luminance" maskUnits="userSpaceOnUse" x="0" y="4" width="50" height="16">
<path d="M50 4.75391H0V19.2467H50V4.75391Z" fill="white"/>
</mask>
<g mask="url(#mask0_664_16875)">
<path d="M8.23715 6.18592C8.0626 5.90337 7.83498 5.65729 7.56687 5.46128C7.29609 5.27613 6.9994 5.13205 6.68645 5.03374C6.34642 4.92249 5.99535 4.84839 5.63937 4.81272C5.22275 4.77211 4.80434 4.75276 4.38576 4.75475H0.762629C0.678644 4.74682 0.593921 4.75582 0.513479 4.78123C0.433037 4.80663 0.358512 4.84793 0.294319 4.90266C0.230126 4.9574 0.177571 5.02446 0.139767 5.09987C0.101962 5.17529 0.0796782 5.25753 0.0742342 5.34171C0.0742342 5.34171 0.0742342 5.36345 0.0742342 5.37432V11.2584C0.576553 12.3363 1.41073 13.2251 2.45463 13.7947V12.6135C2.44668 12.5224 2.45678 12.4306 2.48436 12.3433C2.51193 12.2561 2.55644 12.1752 2.61534 12.1052C2.67423 12.0352 2.74636 11.9775 2.82758 11.9354C2.9088 11.8933 2.99753 11.8676 3.08868 11.8599H4.17562C5.65869 11.8599 6.79031 11.5495 7.57049 10.9287C8.35068 10.3079 8.74681 9.38763 8.75888 8.16781C8.76015 7.81628 8.71879 7.4659 8.6357 7.12433C8.55287 6.79256 8.41838 6.47589 8.23715 6.18592ZM6.114 9.2113C5.98764 9.42873 5.79982 9.60394 5.57415 9.71492C5.32963 9.83171 5.06544 9.90176 4.79518 9.92144C4.49832 9.95841 4.19941 9.97656 3.90026 9.97579H2.8568C2.6068 9.97579 2.45101 9.77289 2.45101 9.47579V7.04824C2.44741 6.99498 2.45562 6.94158 2.47505 6.89186C2.49449 6.84214 2.52468 6.79733 2.56345 6.76063C2.60222 6.72394 2.64862 6.69626 2.69933 6.67959C2.75005 6.66291 2.80382 6.65765 2.8568 6.66418H3.90026C4.23842 6.66418 4.55726 6.67384 4.85677 6.69317C5.1237 6.70598 5.38569 6.76994 5.6285 6.88157C5.85189 6.98104 6.03826 7.14839 6.1611 7.35984C6.29981 7.64336 6.36343 7.95774 6.34588 8.27288C6.35292 8.59954 6.27289 8.92218 6.114 9.20767V9.2113ZM2.45826 14.1497C1.56478 13.8274 0.751531 13.3157 0.0742342 12.6497V15.494C0.0666469 15.5481 0.0700928 15.6033 0.0843648 15.6561C0.0986368 15.7089 0.12344 15.7583 0.157284 15.8013C0.191128 15.8443 0.233313 15.88 0.281304 15.9062C0.329295 15.9325 0.382101 15.9488 0.436547 15.9541H2.0742C2.50898 15.9541 2.45826 15.4903 2.45826 15.4903V14.1497ZM24.9651 7.85259H23.5521C23.4173 7.84377 23.2836 7.88295 23.1749 7.96318C23.0661 8.04342 22.9893 8.15954 22.9579 8.291L21.3166 12.8128C21.3166 12.8128 19.8674 8.69318 19.7587 8.37433C19.7282 8.22722 19.6483 8.09494 19.5323 7.9994C19.4164 7.90386 19.2713 7.85079 19.121 7.84897H17.8203C17.3566 7.84897 17.3566 8.21129 17.4182 8.3526C17.4798 8.4939 19.2587 13.3708 19.9544 15.2367C20.0639 15.4664 20.1407 15.7103 20.1826 15.9614C20.1375 16.2091 20.0439 16.4455 19.9072 16.657C19.8544 16.7467 19.7938 16.8315 19.7261 16.9106C21.0667 16.5121 22.6246 15.0592 23.4072 13.4903C24.197 11.3164 25.2369 8.41781 25.284 8.26926C25.3347 8.041 25.3347 7.85259 24.9651 7.85259ZM18.6681 17.3527C18.5469 17.3494 18.426 17.3397 18.3058 17.3237C18.1573 17.3019 17.8747 17.3237 17.8747 17.5773V18.6643C17.8747 19.0809 18.0776 19.1099 18.1826 19.1389C18.5182 19.2125 18.8608 19.249 19.2044 19.2476C19.6103 19.2583 20.0133 19.1752 20.3819 19.0048C20.7191 18.8345 21.0185 18.5979 21.2623 18.3092C21.5387 17.9932 21.7725 17.6424 21.9579 17.2657C22.1584 16.8647 22.3492 16.4215 22.5304 15.936L22.7405 15.3599C22.3203 15.7766 20.4652 17.5266 18.6681 17.3527ZM16.5305 9.15332C16.4535 8.97024 16.3484 8.80031 16.2189 8.6497C16.088 8.51018 15.9394 8.38838 15.7769 8.28738C15.6013 8.16784 15.4145 8.0659 15.2189 7.98303C15.0198 7.90588 14.8151 7.8441 14.6066 7.79824C14.368 7.74545 14.1258 7.71033 13.882 7.69317C13.6211 7.6666 13.3288 7.65332 13.0052 7.65332C10.8458 7.65332 9.61636 8.33448 9.31684 9.69681C9.30407 9.74758 9.30245 9.80053 9.31209 9.85199C9.32174 9.90346 9.34243 9.95222 9.37273 9.99492C9.40304 10.0376 9.44224 10.0733 9.48763 10.0994C9.53302 10.1255 9.58353 10.1414 9.63568 10.1461H10.9654C11.3277 10.1461 11.3277 10.0338 11.4654 9.72217C11.5257 9.55253 11.6339 9.40402 11.7769 9.29463C12.1167 9.07532 12.5185 8.97233 12.9219 9.00115C13.298 8.9627 13.6758 9.0562 13.9907 9.26564C14.2308 9.48981 14.3727 9.79971 14.3856 10.128C14.3856 10.5773 14.2479 10.8744 13.69 10.8744C12.3675 10.8273 10.9472 10.9758 10.1465 11.436C9.75238 11.6766 9.42882 12.0171 9.20867 12.4231C8.98852 12.829 8.8796 13.286 8.89294 13.7476C8.88383 14.1071 8.95694 14.464 9.1067 14.7911C9.24777 15.0753 9.45232 15.3232 9.70452 15.5157C9.96925 15.7316 10.2749 15.8918 10.603 15.9867C10.9738 16.0871 11.3566 16.1359 11.7407 16.1316C12.2574 16.1397 12.7722 16.0663 13.266 15.9142C13.7026 15.7354 14.1152 15.5029 14.4943 15.2222V15.4758C14.4943 15.7258 14.5704 15.9505 14.8566 15.9505H16.3964C16.708 15.9505 16.7805 15.7295 16.7805 15.4541V10.7113C16.7823 10.4155 16.7618 10.12 16.7189 9.82724C16.6847 9.59557 16.6214 9.36914 16.5305 9.15332ZM14.4255 13.8128C14.4255 13.8128 14.0269 14.6461 12.6139 14.6461C12.2751 14.6617 11.9401 14.5691 11.6574 14.3816C11.533 14.285 11.4346 14.1588 11.3714 14.0146C11.3081 13.8703 11.2819 13.7125 11.2951 13.5555C11.2795 13.3447 11.3283 13.1341 11.4351 12.9517C11.5418 12.7692 11.7015 12.6235 11.8929 12.5338C12.4645 12.3142 13.0744 12.2119 13.6863 12.2331C13.78 12.2189 13.8756 12.2253 13.9665 12.2516C14.0575 12.2779 14.1417 12.3237 14.2133 12.3856C14.2849 12.4476 14.3422 12.5244 14.3814 12.6106C14.4205 12.6968 14.4405 12.7905 14.4399 12.8852L14.4255 13.8128Z" fill="#282A2C"/>
<path d="M49.6397 10.7628C49.8182 11.05 49.9128 11.3813 49.9128 11.7194C49.9128 12.0575 49.8182 12.3888 49.6397 12.6759C49.2774 13.2267 47.3028 15.3355 46.6506 16.013C46.0854 16.6 45.3209 17.1942 44.5636 17.1942H28.8789C26.7557 17.1942 26.6289 16.4695 26.6289 14.8536V8.26276C26.6289 6.6069 27.118 6.125 28.5709 6.125H44.5999C45.3499 6.125 46.0202 6.50907 46.7738 7.28446C47.4332 7.94753 49.3789 10.3715 49.6397 10.7628Z" fill="#33CCCC"/>
<path d="M30.1875 8.67106V8.6312C30.1875 8.41745 30.1875 8.21094 29.8252 8.21094H28.51C28.202 8.21094 28.1875 8.3776 28.1875 8.63845V10.3775C28.7063 9.65526 29.3926 9.06971 30.1875 8.67106Z" fill="white"/>
<path d="M38.9968 14.9615V14.8673V10.6713C38.9968 8.91519 38.2214 8.03711 36.6707 8.03711C36.2391 8.04222 35.8175 8.16771 35.4533 8.39945C35.0521 8.64976 34.6936 8.96296 34.3917 9.32705C34.2551 8.93353 33.9895 8.59771 33.6381 8.37409C33.2385 8.1538 32.7861 8.04727 32.3301 8.06609C31.6596 8.06862 31.0086 8.29283 30.4787 8.70382C30.3628 8.81977 28.1852 10.5155 28.1852 12.2837V14.9687C28.1852 15.0521 28.1417 15.3782 28.5077 15.3782H29.8736C30.2975 15.3782 30.2577 15.0992 30.2577 14.9832V10.6351C30.4859 10.3271 30.9533 9.59156 31.7251 9.59156C31.8485 9.58033 31.9727 9.60229 32.0848 9.65516C32.1969 9.70804 32.2929 9.78991 32.3628 9.89231C32.5177 10.2016 32.5853 10.5474 32.5584 10.8923V14.2803V14.976C32.5584 15.0593 32.5149 15.3854 32.8809 15.3854H34.2323C34.6562 15.3854 34.6164 15.1064 34.6164 14.9905V14.8962V10.6206C34.8628 10.3126 35.341 9.57707 36.0838 9.57707C36.2086 9.56685 36.334 9.58918 36.4477 9.64189C36.5614 9.6946 36.6594 9.77589 36.7323 9.87781C36.8898 10.1864 36.9587 10.5325 36.9316 10.8779V14.2658V14.9615C36.9316 15.0448 36.8881 15.3709 37.2541 15.3709H38.62C39.0475 15.3492 38.9968 15.0738 38.9968 14.9615Z" fill="white"/>
<path d="M46.5314 13.2546C46.2992 13.8787 45.8738 14.4125 45.3171 14.7781C44.7604 15.1437 44.1015 15.322 43.4363 15.2872C41.3487 15.2872 39.957 13.8669 39.957 11.7365C39.957 9.60604 41.4067 8.11328 43.3638 8.11328C45.3209 8.11328 46.6257 9.46836 46.709 11.6532C46.709 11.9321 46.6402 12.1785 46.2886 12.1785H41.8597C41.8887 13.3488 42.4505 13.9901 43.4508 13.9901C43.7164 13.9968 43.9783 13.9273 44.2056 13.7899C44.433 13.6525 44.6163 13.4529 44.7338 13.2148C44.7801 13.1474 44.8424 13.0925 44.9152 13.0552C44.9879 13.0179 45.0688 12.9993 45.1506 13.001H46.2922C46.3265 12.9994 46.3607 13.0055 46.3922 13.0189C46.4238 13.0323 46.4519 13.0526 46.4746 13.0784C46.4972 13.1041 46.5137 13.1346 46.523 13.1677C46.5322 13.2007 46.5338 13.2354 46.5278 13.2691L46.5314 13.2546ZM43.371 9.46473C42.5411 9.46473 41.9793 10.0408 41.8561 10.9901H44.828C44.7519 10.1604 44.3025 9.46473 43.371 9.46473Z" fill="white"/>
</g>
</svg>
