<svg width="40" height="40" viewBox="0 0 40 40" fill="none" xmlns="http://www.w3.org/2000/svg">
<rect width="40" height="40" rx="10" fill="#2B9EF1"/>
<path fill-rule="evenodd" clip-rule="evenodd" d="M26.4026 26.4917V26.49L26.4176 26.4542L28.9167 13.8542V13.8142C28.9167 13.5 28.8001 13.2258 28.5484 13.0617C28.3276 12.9175 28.0734 12.9075 27.8951 12.9208C27.7291 12.9358 27.5653 12.9694 27.4067 13.0208C27.3391 13.0426 27.2724 13.0671 27.2067 13.0942L27.1959 13.0983L13.2626 18.5642L13.2584 18.5658C13.216 18.5803 13.1746 18.5973 13.1342 18.6167C13.0351 18.6612 12.9401 18.7141 12.8501 18.775C12.6709 18.8983 12.3301 19.1883 12.3876 19.6483C12.4351 20.03 12.6976 20.2717 12.8751 20.3975C12.9798 20.4709 13.0925 20.5324 13.2109 20.5808L13.2376 20.5925L13.2459 20.595L13.2517 20.5975L15.6901 21.4183C15.6817 21.5708 15.6967 21.7267 15.7376 21.8808L16.9584 26.5133C17.0251 26.7658 17.1692 26.9911 17.3705 27.1575C17.5718 27.3239 17.8202 27.4231 18.0807 27.4411C18.3413 27.4592 18.6009 27.3951 18.8232 27.258C19.0455 27.1209 19.2192 26.9176 19.3201 26.6767L21.2267 24.6383L24.5009 27.1483L24.5476 27.1683C24.8451 27.2983 25.1226 27.3392 25.3767 27.305C25.6309 27.27 25.8326 27.1633 25.9842 27.0425C26.1596 26.9003 26.2995 26.7191 26.3926 26.5133L26.3992 26.4992L26.4017 26.4942L26.4026 26.4917ZM16.9459 21.5625C16.9324 21.5111 16.9356 21.4567 16.9551 21.4073C16.9745 21.3578 17.0093 21.3159 17.0542 21.2875L25.3217 16.0375C25.3217 16.0375 25.8084 15.7417 25.7909 16.0375C25.7909 16.0375 25.8776 16.0892 25.6167 16.3317C25.3701 16.5625 19.7242 22.0133 19.1526 22.565C19.1208 22.5959 19.0985 22.6352 19.0884 22.6783L18.1667 26.195L16.9459 21.5617V21.5625Z" fill="white"/>
</svg>
