<svg width="12" height="12" viewBox="0 0 12 12" fill="none" xmlns="http://www.w3.org/2000/svg">
<path d="M1.33341 2.00008C1.7016 2.00008 2.00008 1.7016 2.00008 1.33341C2.00008 0.965225 1.7016 0.666748 1.33341 0.666748C0.965225 0.666748 0.666748 0.965225 0.666748 1.33341C0.666748 1.7016 0.965225 2.00008 1.33341 2.00008Z" fill="#282828"/>
<path d="M6.00008 2.00008C6.36827 2.00008 6.66675 1.7016 6.66675 1.33341C6.66675 0.965225 6.36827 0.666748 6.00008 0.666748C5.63189 0.666748 5.33341 0.965225 5.33341 1.33341C5.33341 1.7016 5.63189 2.00008 6.00008 2.00008Z" fill="#282828"/>
<path d="M10.6667 2.00008C11.0349 2.00008 11.3334 1.7016 11.3334 1.33341C11.3334 0.965225 11.0349 0.666748 10.6667 0.666748C10.2986 0.666748 10.0001 0.965225 10.0001 1.33341C10.0001 1.7016 10.2986 2.00008 10.6667 2.00008Z" fill="#282828"/>
<path d="M1.33341 6.66675C1.7016 6.66675 2.00008 6.36827 2.00008 6.00008C2.00008 5.63189 1.7016 5.33341 1.33341 5.33341C0.965225 5.33341 0.666748 5.63189 0.666748 6.00008C0.666748 6.36827 0.965225 6.66675 1.33341 6.66675Z" fill="#282828"/>
<path d="M6.00008 6.66675C6.36827 6.66675 6.66675 6.36827 6.66675 6.00008C6.66675 5.63189 6.36827 5.33341 6.00008 5.33341C5.63189 5.33341 5.33341 5.63189 5.33341 6.00008C5.33341 6.36827 5.63189 6.66675 6.00008 6.66675Z" fill="#282828"/>
<path d="M10.6667 6.66675C11.0349 6.66675 11.3334 6.36827 11.3334 6.00008C11.3334 5.63189 11.0349 5.33341 10.6667 5.33341C10.2986 5.33341 10.0001 5.63189 10.0001 6.00008C10.0001 6.36827 10.2986 6.66675 10.6667 6.66675Z" fill="#282828"/>
<path d="M1.33341 11.3334C1.7016 11.3334 2.00008 11.0349 2.00008 10.6667C2.00008 10.2986 1.7016 10.0001 1.33341 10.0001C0.965225 10.0001 0.666748 10.2986 0.666748 10.6667C0.666748 11.0349 0.965225 11.3334 1.33341 11.3334Z" fill="#282828"/>
<path d="M6.00008 11.3334C6.36827 11.3334 6.66675 11.0349 6.66675 10.6667C6.66675 10.2986 6.36827 10.0001 6.00008 10.0001C5.63189 10.0001 5.33341 10.2986 5.33341 10.6667C5.33341 11.0349 5.63189 11.3334 6.00008 11.3334Z" fill="#282828"/>
<path d="M10.6667 11.3334C11.0349 11.3334 11.3334 11.0349 11.3334 10.6667C11.3334 10.2986 11.0349 10.0001 10.6667 10.0001C10.2986 10.0001 10.0001 10.2986 10.0001 10.6667C10.0001 11.0349 10.2986 11.3334 10.6667 11.3334Z" fill="#282828"/>
<path d="M1.33341 2.00008C1.7016 2.00008 2.00008 1.7016 2.00008 1.33341C2.00008 0.965225 1.7016 0.666748 1.33341 0.666748C0.965225 0.666748 0.666748 0.965225 0.666748 1.33341C0.666748 1.7016 0.965225 2.00008 1.33341 2.00008Z" stroke="#282828" stroke-linecap="round" stroke-linejoin="round"/>
<path d="M6.00008 2.00008C6.36827 2.00008 6.66675 1.7016 6.66675 1.33341C6.66675 0.965225 6.36827 0.666748 6.00008 0.666748C5.63189 0.666748 5.33341 0.965225 5.33341 1.33341C5.33341 1.7016 5.63189 2.00008 6.00008 2.00008Z" stroke="#282828" stroke-linecap="round" stroke-linejoin="round"/>
<path d="M10.6667 2.00008C11.0349 2.00008 11.3334 1.7016 11.3334 1.33341C11.3334 0.965225 11.0349 0.666748 10.6667 0.666748C10.2986 0.666748 10.0001 0.965225 10.0001 1.33341C10.0001 1.7016 10.2986 2.00008 10.6667 2.00008Z" stroke="#282828" stroke-linecap="round" stroke-linejoin="round"/>
<path d="M1.33341 6.66675C1.7016 6.66675 2.00008 6.36827 2.00008 6.00008C2.00008 5.63189 1.7016 5.33341 1.33341 5.33341C0.965225 5.33341 0.666748 5.63189 0.666748 6.00008C0.666748 6.36827 0.965225 6.66675 1.33341 6.66675Z" stroke="#282828" stroke-linecap="round" stroke-linejoin="round"/>
<path d="M6.00008 6.66675C6.36827 6.66675 6.66675 6.36827 6.66675 6.00008C6.66675 5.63189 6.36827 5.33341 6.00008 5.33341C5.63189 5.33341 5.33341 5.63189 5.33341 6.00008C5.33341 6.36827 5.63189 6.66675 6.00008 6.66675Z" stroke="#282828" stroke-linecap="round" stroke-linejoin="round"/>
<path d="M10.6667 6.66675C11.0349 6.66675 11.3334 6.36827 11.3334 6.00008C11.3334 5.63189 11.0349 5.33341 10.6667 5.33341C10.2986 5.33341 10.0001 5.63189 10.0001 6.00008C10.0001 6.36827 10.2986 6.66675 10.6667 6.66675Z" stroke="#282828" stroke-linecap="round" stroke-linejoin="round"/>
<path d="M1.33341 11.3334C1.7016 11.3334 2.00008 11.0349 2.00008 10.6667C2.00008 10.2986 1.7016 10.0001 1.33341 10.0001C0.965225 10.0001 0.666748 10.2986 0.666748 10.6667C0.666748 11.0349 0.965225 11.3334 1.33341 11.3334Z" stroke="#282828" stroke-linecap="round" stroke-linejoin="round"/>
<path d="M6.00008 11.3334C6.36827 11.3334 6.66675 11.0349 6.66675 10.6667C6.66675 10.2986 6.36827 10.0001 6.00008 10.0001C5.63189 10.0001 5.33341 10.2986 5.33341 10.6667C5.33341 11.0349 5.63189 11.3334 6.00008 11.3334Z" stroke="#282828" stroke-linecap="round" stroke-linejoin="round"/>
<path d="M10.6667 11.3334C11.0349 11.3334 11.3334 11.0349 11.3334 10.6667C11.3334 10.2986 11.0349 10.0001 10.6667 10.0001C10.2986 10.0001 10.0001 10.2986 10.0001 10.6667C10.0001 11.0349 10.2986 11.3334 10.6667 11.3334Z" stroke="#282828" stroke-linecap="round" stroke-linejoin="round"/>
</svg>
