<svg width="86" height="26" viewBox="0 0 86 26" fill="none" xmlns="http://www.w3.org/2000/svg">
<g id="IMAGE" clip-path="url(#clip0_664_16907)">
<g id="Clip path group">
<mask id="mask0_664_16907" style="mask-type:luminance" maskUnits="userSpaceOnUse" x="0" y="0" width="44" height="26">
<g id="clip0_8119_502875">
<path id="Vector" d="M44 0H0V26H44V0Z" fill="white"/>
</g>
</mask>
<g mask="url(#mask0_664_16907)">
<g id="Group">
<path id="Vector_2" d="M42 0H2C0.89543 0 0 0.895431 0 2V24C0 25.1046 0.89543 26 2 26H42C43.1046 26 44 25.1046 44 24V2C44 0.895431 43.1046 0 42 0Z" fill="white"/>
<path id="Vector_3" d="M19.0288 18.8247H16.0352L17.9053 7.20898H20.9057L19.0288 18.8247Z" fill="#00579F"/>
<path id="Vector_4" d="M29.9101 7.4981C29.0514 7.16791 28.1389 7.00101 27.2192 7.00597C24.2592 7.00597 22.1737 8.59024 22.1603 10.8486C22.1603 12.5138 23.6537 13.4441 24.7839 13.9969C25.9141 14.5497 26.3379 14.934 26.3379 15.4463C26.3245 16.2216 25.3961 16.5924 24.5283 16.5924C23.5545 16.6188 22.589 16.4059 21.7163 15.9722L21.3194 15.7834L20.9023 18.3924C21.9744 18.8098 23.1157 19.0203 24.2659 19.0126C27.4075 19.0126 29.4594 17.4553 29.4795 15.0486C29.4795 13.7003 28.6925 12.716 26.9635 11.8868C25.9141 11.3542 25.275 10.9969 25.275 10.4508C25.275 9.90485 25.8199 9.45316 27.0039 9.45316C27.7688 9.41578 28.5322 9.55174 29.2374 9.85091L29.5065 9.97226L29.9101 7.4981Z" fill="#00579F"/>
<path id="Vector_5" d="M33.883 14.7133L35.0804 11.4638C35.0804 11.4638 35.3293 10.7897 35.4773 10.3515L35.6859 11.3492C35.6859 11.3492 36.251 14.1268 36.3586 14.72L33.883 14.7133ZM37.583 7.20988H35.289C34.9575 7.16983 34.6222 7.24328 34.3377 7.4183C34.0531 7.59331 33.836 7.85961 33.7215 8.17392L29.2344 18.8324H32.3761L33.0084 17.0931H36.8564C36.9439 17.4975 37.213 18.8324 37.213 18.8324H39.9981L37.583 7.20988Z" fill="#00579F"/>
<path id="Vector_6" d="M13.5367 7.20898L10.5969 15.1303L10.274 13.5258C9.54482 11.4454 8.07032 9.71072 6.13672 8.65842L8.82763 18.818H11.9962L16.7053 7.21573H13.5367V7.20898Z" fill="#00579F"/>
<path id="Vector_7" d="M7.87055 7.20849H3.04709L3 7.44444C6.76055 8.40849 9.24964 10.7343 10.2789 13.5118L9.22945 8.18601C9.16617 7.88484 8.99341 7.618 8.74476 7.43734C8.49611 7.25669 8.18932 7.17512 7.884 7.20849H7.87055Z" fill="#FAA61A"/>
</g>
</g>
</g>
<g id="Clip path group_2">
<mask id="mask1_664_16907" style="mask-type:luminance" maskUnits="userSpaceOnUse" x="52" y="0" width="34" height="26">
<g id="clip1_8119_502875">
<path id="Vector_8" d="M86 0H52V26H86V0Z" fill="white"/>
</g>
</mask>
<g mask="url(#mask1_664_16907)">
<g id="Group_2">
<path id="Vector_9" d="M84 0H54C52.8954 0 52 0.895431 52 2V24C52 25.1046 52.8954 26 54 26H84C85.1046 26 86 25.1046 86 24V2C86 0.895431 85.1046 0 84 0Z" fill="white"/>
<path id="Vector_10" d="M61.1817 21.9108V20.7194C61.1817 20.2627 60.9056 19.9648 60.4322 19.9648C60.1956 19.9648 59.9392 20.0442 59.7616 20.3024C59.6236 20.084 59.4264 19.9648 59.1305 19.9648C58.9333 19.9648 58.7361 20.0244 58.5783 20.2428V20.0045H58.1641V21.9108H58.5783V20.8584C58.5783 20.5208 58.7558 20.3619 59.0319 20.3619C59.308 20.3619 59.4461 20.5407 59.4461 20.8584V21.9108H59.8603V20.8584C59.8603 20.5208 60.0575 20.3619 60.3139 20.3619C60.59 20.3619 60.7281 20.5407 60.7281 20.8584V21.9108H61.1817ZM67.3155 20.0045H66.6449V19.4287H66.2308V20.0045H65.856V20.3818H66.2308V21.2555C66.2308 21.6923 66.4083 21.9505 66.8816 21.9505C67.0591 21.9505 67.2563 21.8909 67.3944 21.8115L67.2761 21.4541C67.1577 21.5335 67.0197 21.5533 66.9211 21.5533C66.7238 21.5533 66.6449 21.4342 66.6449 21.2356V20.3818H67.3155V20.0045ZM70.8262 19.9648C70.5895 19.9648 70.4317 20.084 70.3331 20.2428V20.0045H69.9189V21.9108H70.3331V20.8385C70.3331 20.5208 70.4712 20.3421 70.7276 20.3421C70.8065 20.3421 70.9051 20.3619 70.984 20.3818L71.1023 19.9847C71.0234 19.9648 70.9051 19.9648 70.8262 19.9648ZM65.5207 20.1634C65.3235 20.0244 65.0474 19.9648 64.7515 19.9648C64.2782 19.9648 63.9626 20.2031 63.9626 20.5804C63.9626 20.8981 64.1993 21.0768 64.6135 21.1363L64.8107 21.1562C65.0277 21.1959 65.146 21.2555 65.146 21.3548C65.146 21.4938 64.9882 21.593 64.7121 21.593C64.436 21.593 64.219 21.4938 64.081 21.3945L63.8837 21.7122C64.1007 21.871 64.3965 21.9505 64.6924 21.9505C65.2446 21.9505 65.5602 21.6923 65.5602 21.3349C65.5602 20.9974 65.3038 20.8186 64.9093 20.7591L64.7121 20.7392C64.5346 20.7194 64.3965 20.6796 64.3965 20.5605C64.3965 20.4215 64.5346 20.3421 64.7515 20.3421C64.9882 20.3421 65.2249 20.4414 65.3432 20.5009L65.5207 20.1634ZM76.5261 19.9648C76.2894 19.9648 76.1317 20.084 76.033 20.2428V20.0045H75.6189V21.9108H76.033V20.8385C76.033 20.5208 76.1711 20.3421 76.4275 20.3421C76.5064 20.3421 76.605 20.3619 76.6839 20.3818L76.8022 19.9847C76.7234 19.9648 76.605 19.9648 76.5261 19.9648ZM71.2404 20.9576C71.2404 21.5335 71.6348 21.9505 72.2462 21.9505C72.5224 21.9505 72.7196 21.8909 72.9168 21.732L72.7196 21.3945C72.5618 21.5136 72.404 21.5732 72.2265 21.5732C71.8912 21.5732 71.6546 21.3349 71.6546 20.9576C71.6546 20.6002 71.8912 20.3619 72.2265 20.3421C72.404 20.3421 72.5618 20.4017 72.7196 20.5208L72.9168 20.1832C72.7196 20.0244 72.5224 19.9648 72.2462 19.9648C71.6348 19.9648 71.2404 20.3818 71.2404 20.9576ZM75.0666 20.9576V20.0045H74.6524V20.2428C74.5144 20.0641 74.3172 19.9648 74.0608 19.9648C73.5282 19.9648 73.1141 20.3818 73.1141 20.9576C73.1141 21.5335 73.5282 21.9505 74.0608 21.9505C74.3369 21.9505 74.5341 21.8512 74.6524 21.6725V21.9108H75.0666V20.9576ZM73.548 20.9576C73.548 20.6201 73.7649 20.3421 74.1199 20.3421C74.4552 20.3421 74.6919 20.6002 74.6919 20.9576C74.6919 21.2952 74.4552 21.5732 74.1199 21.5732C73.7649 21.5533 73.548 21.2952 73.548 20.9576ZM68.5975 19.9648C68.0453 19.9648 67.6508 20.3619 67.6508 20.9576C67.6508 21.5533 68.0453 21.9505 68.6172 21.9505C68.8933 21.9505 69.1695 21.871 69.3864 21.6923L69.1892 21.3945C69.0314 21.5136 68.8342 21.593 68.6369 21.593C68.3806 21.593 68.1242 21.4739 68.065 21.1363H69.4653V20.9775C69.485 20.3619 69.13 19.9648 68.5975 19.9648ZM68.5975 20.3222C68.8539 20.3222 69.0314 20.4811 69.0709 20.7789H68.0847C68.1242 20.5208 68.3017 20.3222 68.5975 20.3222ZM78.8732 20.9576V19.25H78.459V20.2428C78.3209 20.0641 78.1237 19.9648 77.8673 19.9648C77.3348 19.9648 76.9206 20.3818 76.9206 20.9576C76.9206 21.5335 77.3348 21.9505 77.8673 21.9505C78.1434 21.9505 78.3406 21.8512 78.459 21.6725V21.9108H78.8732V20.9576ZM77.3545 20.9576C77.3545 20.6201 77.5714 20.3421 77.9264 20.3421C78.2617 20.3421 78.4984 20.6002 78.4984 20.9576C78.4984 21.2952 78.2617 21.5732 77.9264 21.5732C77.5714 21.5533 77.3545 21.2952 77.3545 20.9576ZM63.509 20.9576V20.0045H63.0948V20.2428C62.9567 20.0641 62.7595 19.9648 62.5031 19.9648C61.9706 19.9648 61.5564 20.3818 61.5564 20.9576C61.5564 21.5335 61.9706 21.9505 62.5031 21.9505C62.7792 21.9505 62.9765 21.8512 63.0948 21.6725V21.9108H63.509V20.9576ZM61.9706 20.9576C61.9706 20.6201 62.1876 20.3421 62.5426 20.3421C62.8779 20.3421 63.1145 20.6002 63.1145 20.9576C63.1145 21.2952 62.8779 21.5732 62.5426 21.5732C62.1876 21.5533 61.9706 21.2952 61.9706 20.9576Z" fill="#282A2C"/>
<path id="Vector_11" d="M71.5956 5.5293H65.3828V16.768H71.5956V5.5293Z" fill="#FF5F00"/>
<path id="Vector_12" d="M65.7767 11.1483C65.7767 8.86485 66.8417 6.83948 68.4787 5.52895C67.2756 4.57584 65.757 4 64.1003 4C60.1754 4 57 7.1969 57 11.1483C57 15.0998 60.1754 18.2967 64.1003 18.2967C65.757 18.2967 67.2756 17.7208 68.4787 16.7677C66.8417 15.4771 65.7767 13.4318 65.7767 11.1483Z" fill="#EB001B"/>
<path id="Vector_13" d="M79.9749 11.1483C79.9749 15.0998 76.7995 18.2967 72.8746 18.2967C71.2179 18.2967 69.6992 17.7208 68.4961 16.7677C70.1529 15.4572 71.1982 13.4318 71.1982 11.1483C71.1982 8.86485 70.1331 6.83948 68.4961 5.52895C69.6992 4.57584 71.2179 4 72.8746 4C76.7995 4 79.9749 7.21676 79.9749 11.1483Z" fill="#F79E1B"/>
</g>
</g>
</g>
</g>
<defs>
<clipPath id="clip0_664_16907">
<rect width="86" height="26" fill="white"/>
</clipPath>
</defs>
</svg>
